<svg transform="scale(1)" version="1.1" id="Layer_1" xmlns="http://www.w3.org/2000/svg" xmlns:xlink="http://www.w3.org/1999/xlink" x="0px" y="0px" viewBox="0 0 500 500" xml:space="preserve" class="show_show__wrapper__graphic__5Waiy "><title>React</title><style type="text/css">
	.st0{fill:#D1D3D4;}
	.st1{fill:#FFFFFF;}
	.st2{fill:#A27B5C;}
	.st3{fill:#3F4E4F;}
	.st4{fill:none;}
</style><path class="st0" id="floor" d="M484.4,378.1H20.2c-0.4,0-0.8-0.3-0.8-0.8s0.3-0.8,0.8-0.8h464.2c0.4,0,0.8,0.3,0.8,0.8
	S484.8,378.1,484.4,378.1z"></path><g id="screen"><path class="st1" d="M60.3,100.9h392.9c3,0,5.4,2.4,5.4,5.4v236c0,3-2.4,5.4-5.4,5.4H60.3c-3,0-5.4-2.4-5.4-5.4v-236
		C54.9,103.3,57.3,100.9,60.3,100.9z"></path><path class="st2" d="M453.2,348.4H60.3c-3.4,0-6.1-2.7-6.1-6.1v-236c0-3.4,2.7-6.1,6.1-6.1h392.9c3.4,0,6.1,2.7,6.1,6.1v236
		C459.3,345.7,456.5,348.4,453.2,348.4z M60.3,101.7c-2.6,0-4.6,2.1-4.6,4.6v236c0,2.6,2.1,4.6,4.6,4.6h392.9c2.6,0,4.6-2.1,4.6-4.6
		v-236c0-2.6-2.1-4.6-4.6-4.6H60.3z"></path><path class="st0" d="M234.1,277.8H78.2c-0.4,0-0.8-0.3-0.8-0.8s0.3-0.8,0.8-0.8h155.9c0.4,0,0.8,0.3,0.8,0.8
		S234.5,277.8,234.1,277.8z"></path><path class="st0" d="M162.3,335.1c-0.4,0-0.8-0.3-0.8-0.8v-57.6c0-0.4,0.3-0.8,0.8-0.8s0.8,0.3,0.8,0.8v57.6
		C163,334.8,162.7,335.1,162.3,335.1z"></path><path class="st0" d="M431.2,239.4H251.9c-0.4,0-0.8-0.3-0.8-0.8s0.3-0.8,0.8-0.8h179.3c0.4,0,0.8,0.3,0.8,0.8
		S431.6,239.4,431.2,239.4z"></path><path class="st0" d="M431.2,256.9H251.9c-0.4,0-0.8-0.3-0.8-0.8s0.3-0.8,0.8-0.8h179.3c0.4,0,0.8,0.3,0.8,0.8
		S431.6,256.9,431.2,256.9z"></path><path class="st0" d="M431.2,274.4H251.9c-0.4,0-0.8-0.3-0.8-0.8s0.3-0.8,0.8-0.8h179.3c0.4,0,0.8,0.3,0.8,0.8
		S431.6,274.4,431.2,274.4z"></path><path class="st0" d="M431.2,292H251.9c-0.4,0-0.8-0.3-0.8-0.8s0.3-0.8,0.8-0.8h179.3c0.4,0,0.8,0.3,0.8,0.8S431.6,292,431.2,292z"></path><path class="st0" d="M431.2,309.5H251.9c-0.4,0-0.8-0.3-0.8-0.8s0.3-0.8,0.8-0.8h179.3c0.4,0,0.8,0.3,0.8,0.8
		S431.6,309.5,431.2,309.5z"></path><path class="st0" d="M440.4,215.7H233.3c-0.4,0-0.8-0.3-0.8-0.8s0.3-0.8,0.8-0.8h207.1c0.4,0,0.8,0.3,0.8,0.8
		S440.8,215.7,440.4,215.7z"></path><path class="st3" d="M253.4,150.6h67.1c1.1,0,2.1,0.9,2.1,2.1V197c0,1.1-0.9,2.1-2.1,2.1h-67.1c-1.1,0-2.1-0.9-2.1-2.1v-44.3
		C251.4,151.6,252.3,150.6,253.4,150.6z"></path><path class="st0" d="M233.8,333.7c-0.4,0-0.8-0.3-0.8-0.8V136.6c0-0.4,0.3-0.8,0.8-0.8s0.8,0.3,0.8,0.8V333
		C234.6,333.4,234.2,333.7,233.8,333.7z"></path><path class="st0" d="M441.8,136.9H71c-0.4,0-0.8-0.3-0.8-0.8s0.3-0.8,0.8-0.8h370.8c0.4,0,0.8,0.3,0.8,0.8S442.2,136.9,441.8,136.9
		z"></path><path class="st2" d="M436.8,335.6h-360c-3.4,0-6.1-2.7-6.1-6.1V119.1c0-3.4,2.7-6.1,6.1-6.1h360c3.4,0,6.1,2.7,6.1,6.1v210.3
		C442.8,332.8,440.1,335.6,436.8,335.6z M76.8,114.5c-2.6,0-4.6,2.1-4.6,4.6v0v210.3c0,2.6,2.1,4.6,4.6,4.6h360
		c2.6,0,4.6-2.1,4.6-4.6V119.1c0-2.6-2.1-4.6-4.6-4.6L76.8,114.5z"></path><path class="st1" d="M297.8,347.7l-42.6-0.1l-42.6,0.1c0,0-3.8,38.6-28.2,55.1H326C301.6,386.3,297.8,347.7,297.8,347.7z"></path><path class="st2" d="M326,403.5H184.5c-0.4,0-0.8-0.3-0.8-0.7c0-0.3,0.1-0.5,0.3-0.6c23.9-16.1,27.8-54.2,27.9-54.5
		c0-0.4,0.4-0.7,0.7-0.7l42.6-0.1l42.6,0.1c0.4,0,0.7,0.3,0.8,0.7c0,0.4,4,38.5,27.9,54.5c0.3,0.2,0.4,0.5,0.3,0.9
		C326.7,403.4,326.4,403.6,326,403.5z M186.8,402h136.8c-21-15.9-25.9-48.5-26.5-53.6l-41.9-0.1l-41.9,0.1
		C212.7,353.6,207.9,386.2,186.8,402z"></path><path class="st1" d="M171.4,402.8h167.7c2.7,0,4.9,2.2,4.9,4.9v5c0,2.7-2.2,4.9-4.9,4.9H171.4c-2.7,0-4.9-2.2-4.9-4.9v-5
		C166.6,405,168.7,402.8,171.4,402.8z"></path><path class="st2" d="M339.1,418.2H171.4c-3.1,0-5.6-2.5-5.6-5.6v-5c0-3.1,2.5-5.6,5.6-5.6h167.6c3.1,0,5.6,2.5,5.6,5.6v5
		C344.7,415.7,342.2,418.2,339.1,418.2z M171.4,403.5c-2.3,0-4.1,1.8-4.1,4.1v5c0,2.3,1.8,4.1,4.1,4.1h167.6c2.3,0,4.1-1.8,4.1-4.1
		v-5c0-2.3-1.8-4.1-4.1-4.1H171.4z"></path><circle class="st3" cx="94.6" cy="126" r="4.6"></circle><circle class="st2" cx="112.7" cy="126" r="4.6"></circle><circle class="st2" cx="130.9" cy="126" r="4.6"></circle><line class="st4" x1="227.4" y1="281.5" x2="170.1" y2="328.5"></line><path class="st0" d="M170.1,329.3c-0.4,0-0.8-0.3-0.8-0.7c0-0.2,0.1-0.4,0.3-0.6l57.4-47.1c0.3-0.3,0.8-0.2,1.1,0.1
		c0.3,0.3,0.2,0.8-0.1,1.1l-57.4,47C170.5,329.2,170.3,329.3,170.1,329.3z"></path><line class="st4" x1="170.1" y1="281.5" x2="227.4" y2="328.5"></line><path class="st0" d="M227.4,329.3c-0.2,0-0.3-0.1-0.5-0.2l-57.3-47c-0.3-0.3-0.4-0.8-0.1-1.1c0.3-0.3,0.8-0.4,1.1-0.1l57.3,47.1
		c0.3,0.3,0.3,0.7,0.1,1C227.9,329.2,227.7,329.3,227.4,329.3z"></path></g><g id="character_female"><path class="st1" d="M103.1,367.8l12.1,44.4c0,0,21.2,4.9,20.8,6.3s-33.5,5.8-33.5,5.8l-14-51.3"></path><path class="st2" d="M102.5,425.1c-0.3,0-0.6-0.2-0.7-0.5l-14-51.3c-0.1-0.4,0.1-0.8,0.5-0.9c0.4-0.1,0.8,0.1,0.9,0.5l13.8,50.7
		c10.9-1.5,27.3-4,31.5-5.1c-2.7-1.2-11.4-3.5-19.5-5.4c-0.3-0.1-0.5-0.3-0.6-0.5L102.3,368c-0.1-0.4,0.1-0.8,0.5-0.9c0,0,0,0,0,0
		c0.4-0.1,0.8,0.1,0.9,0.5c0,0,0,0,0,0l12,44c7.6,1.8,19.9,4.9,20.8,6.4c0.1,0.2,0.2,0.5,0.1,0.8c-0.2,0.5-0.6,1.8-34.1,6.3
		L102.5,425.1z M135.3,418.8L135.3,418.8z"></path><path class="st1" d="M65.3,353l-3.5,67.3c0,0,33.2,7.2,33.3,6.3S77.3,413,77.3,413l5.2-47.9"></path><path class="st2" d="M94.9,427.5c-1.6,0-7.8-0.9-33.2-6.4c-0.4-0.1-0.6-0.4-0.6-0.8l3.5-67.3c0-0.4,0.4-0.7,0.8-0.7
		c0.4,0,0.7,0.4,0.7,0.8c0,0,0,0,0,0l-3.5,66.7c10.2,2.2,25.5,5.4,30.6,6.1c-3-2.5-11.1-8.4-16.4-12.2c-0.2-0.2-0.3-0.4-0.3-0.7
		l5.2-47.9c0-0.4,0.4-0.7,0.8-0.7c0.4,0,0.7,0.4,0.7,0.8l-5.2,47.4c18,12.8,17.9,13.6,17.8,14.1c0,0.2-0.2,0.4-0.3,0.5
		C95.5,427.4,95.4,427.5,94.9,427.5z"></path><path class="st2" d="M122.2,411.8l-4.5,6.8l-17.5,2.1l1.7,6.7c0,0,38.5-4.8,39.4-8.3S122.2,411.8,122.2,411.8z"></path><path class="st2" d="M58.8,421.9l1-6.9l20.2,5.6l3.9-5.2c0,0,14.8,10.8,12.8,13.1S72.8,426.6,58.8,421.9z"></path><path class="st1" d="M52,188.6c2-0.6,4.1-0.4,6,0.4c2.7-5.6,7.3-9.8,13.4-10.8c2.1-0.3,4.1-0.5,6.2-0.5c3.1,0,6.5,0.2,8.9,2.1
		c3,2.3,3.9,6.6,3,10.2c-1.8,7.4-7.4,9.2-12.5,13.4s-7.9,11-7.9,17.4c0,14.6,4.6,30.8-11.4,39.6c-10.2,5.6-24.1,1.3-31-8.2
		c-1.5-2-2.7-4.4-3.4-6.8c-1.7-6.7,1.2-13.6,4.9-19.4c3.5-5.7,7.4-11.1,10.5-17c2.6-5.2,3-11.4,6.8-16.1
		C47.3,190.8,49.5,189.3,52,188.6z"></path><path class="st2" d="M47.7,263.6c-8.5-0.1-16.4-4.1-21.4-10.9c-1.6-2.1-2.8-4.5-3.5-7.1c-1.5-5.8,0.2-12.4,5-20
		c1-1.7,2.1-3.3,3.2-5c2.6-3.9,5-7.9,7.2-12c1-2.1,1.8-4.2,2.4-6.4c1-3.4,2.1-6.9,4.5-9.8c1.7-2.1,4.1-3.7,6.7-4.4l0,0
		c1.9-0.6,4-0.5,5.9,0.2c3-5.8,7.8-9.6,13.6-10.6c2.1-0.3,4.2-0.5,6.3-0.5c3.1,0,6.7,0.2,9.4,2.3c3,2.3,4.3,6.7,3.3,11
		c-1.4,5.9-5.1,8.4-9,11.1c-1.2,0.9-2.5,1.7-3.8,2.8c-4.8,4.2-7.6,10.4-7.6,16.8c0,2.6,0.2,5.4,0.3,8.1c0.7,12.1,1.4,24.7-12.1,32.1
		C54.9,262.7,51.3,263.6,47.7,263.6z M52.2,189.4L52.2,189.4c-2.3,0.7-4.4,2-5.9,3.9c-2.2,2.7-3.2,5.9-4.2,9.3
		c-0.6,2.3-1.5,4.5-2.5,6.7c-2.2,4.2-4.7,8.2-7.3,12.1c-1.1,1.6-2.1,3.3-3.2,5c-4.6,7.3-6.1,13.5-4.8,18.9c0.6,2.4,1.7,4.6,3.2,6.6
		c7,9.6,20.4,13.2,30,7.9c12.7-6.9,12-18.5,11.3-30.8c-0.2-2.7-0.3-5.5-0.3-8.1c0-6.9,3-13.4,8.2-17.9c1.3-1.1,2.6-2,3.9-2.8
		c3.8-2.6,7.1-4.9,8.4-10.2c0.8-3.1,0.2-7.2-2.7-9.4c-2.3-1.8-5.6-2-8.5-2c-2,0-4.1,0.2-6.1,0.5c-5.6,1-10.2,4.7-12.9,10.4
		c-0.1,0.2-0.2,0.3-0.4,0.4c-0.2,0.1-0.4,0.1-0.6,0C56,189,54,188.8,52.2,189.4z"></path><path class="st1" d="M100.4,237.3c-3.3,1.3-8.7,2.4-10.1-2.1c-0.2-0.8-0.3-1.7-0.2-2.5c0.1-1.2,0.3-2.5,0.7-3.6
		c0.9-3.4,2-6.6,3.5-9.8c0.3-0.8,1-1.8,1.8-1.5s0.8,1.2,0.8,1.9c0,2.1-0.3,4.1-0.3,6.2c4.4-1.1,7.1-5.7,11.2-6.7
		c1.2-0.3,2.6-0.4,2.7,1.1c0.2,1.9-3.2,3.3-4.3,4.3c1.3-1.1,2.7-1.9,4.3-2.5c0.4-0.2,0.9-0.3,1.4-0.2c0.5,0.1,0.9,0.4,0.9,0.9
		c0,0.4-0.2,0.7-0.5,1c-0.6,0.7-1.4,1.4-2.2,2c0.8-0.9,1.8-1.5,3-1.8c0.6-0.2,1.2,0,1.7,0.4c0.5,0.8-0.4,1.7-1.2,2.1
		c0.6-0.6,1.4-1,2.2-1.1c0.9-0.1,1.7,0.4,1.9,1.3c0,0.7-0.4,1.3-0.9,1.7C112.6,232.7,106,235.1,100.4,237.3z"></path><path class="st2" d="M95.2,239.2c-1,0-2.1-0.2-3-0.6c-1.3-0.6-2.2-1.8-2.6-3.2c-0.3-0.9-0.3-1.8-0.2-2.8c0.1-1.3,0.3-2.5,0.7-3.8
		c0.9-3.4,2.1-6.7,3.5-9.9c0.7-1.5,1.7-2.2,2.8-1.9c0.6,0.2,1.3,0.8,1.3,2.6c0,0.9-0.1,1.8-0.2,2.7s-0.1,1.7-0.1,2.5
		c1.6-0.8,3.2-1.8,4.5-3c1.8-1.4,3.6-2.9,5.8-3.4c0.9-0.3,2-0.2,2.8,0.2c0.5,0.4,0.8,1,0.8,1.6c0,0.3,0,0.6-0.1,0.9
		c0.3,0,0.5,0,0.8,0c0.8,0.1,1.5,0.8,1.6,1.6c0,0.2,0,0.3,0,0.5c0.8-0.1,1.6,0.2,2,0.9c0.1,0.2,0.2,0.4,0.2,0.7l0,0
		c0.7-0.1,1.4,0.1,2,0.6c0.4,0.3,0.7,0.8,0.8,1.4c0,0.9-0.4,1.7-1.1,2.3c-4.2,4.1-10.5,6.6-16,8.7l-0.7,0.3
		C98.9,238.7,97.1,239.1,95.2,239.2z M95.8,218.4c-0.2,0-0.6,0.4-0.9,1.1c-1.4,3.1-2.6,6.4-3.4,9.7c-0.3,1.2-0.5,2.3-0.7,3.5
		c-0.1,0.7,0,1.5,0.2,2.2c0.3,1,0.9,1.8,1.8,2.3c2.2,1.1,5.5,0.1,7.3-0.6l0.7-0.3c5.4-2.1,11.5-4.4,15.5-8.4
		c0.3-0.3,0.7-0.7,0.7-1.1c0-0.1-0.1-0.3-0.2-0.4c-0.2-0.2-0.6-0.3-0.9-0.2c-0.4,0.1-0.8,0.2-1.2,0.5c-0.2,0.2-0.5,0.4-0.8,0.5
		c-0.4,0.2-0.8,0.1-1-0.3c-0.2-0.3-0.1-0.7,0.2-0.9c0.2-0.1,0.4-0.3,0.7-0.5c0.2-0.1,0.3-0.3,0.4-0.5c0,0,0-0.1,0-0.1
		c-0.1-0.1-0.4-0.2-0.9-0.1c-0.5,0.1-1,0.3-1.4,0.5c-0.4,0.4-0.9,0.8-1.3,1.1c-0.3,0.2-0.7,0.2-1-0.1c-0.3-0.3-0.3-0.7,0-1
		c0.4-0.5,0.9-0.9,1.4-1.2c0.2-0.2,0.5-0.5,0.7-0.8s0.3-0.4,0.3-0.5s-0.1-0.2-0.3-0.2c-0.3,0-0.7,0-1,0.2c-0.5,0.2-1.1,0.4-1.6,0.7
		c-0.4,0.3-0.9,0.6-1.3,0.9c-0.4,0.2-0.8,0.5-1.2,0.8c-0.3,0.3-0.8,0.2-1.1-0.1s-0.2-0.8,0.1-1.1l0,0l0,0c0.8-0.7,1.7-1.3,2.6-1.8
		c0.8-0.6,1.5-1.3,1.5-1.9c0-0.4-0.2-0.4-0.2-0.5s-0.6-0.2-1.6,0c-1.9,0.4-3.5,1.8-5.2,3.1c-1.7,1.6-3.8,2.8-6,3.6
		c-0.2,0.1-0.5,0-0.6-0.1c-0.2-0.1-0.3-0.4-0.3-0.6c0-1.2,0.1-2.5,0.2-3.7c0.1-0.9,0.1-1.7,0.1-2.6S96,218.5,95.8,218.4L95.8,218.4z
		"></path><path class="st1" d="M96.8,226.1c2,2.5,2.1,6,0.1,8.6h0.4"></path><path class="st2" d="M96.9,235.4c-0.4,0-0.8-0.3-0.8-0.7c0-0.2,0.1-0.3,0.2-0.5c1.7-2.3,1.7-5.4-0.1-7.6c-0.3-0.3-0.2-0.8,0.1-1.1
		c0.3-0.3,0.8-0.2,1.1,0.1c0,0,0,0,0,0c2.1,2.5,2.3,6,0.7,8.8c0,0.1,0,0.2,0,0.2c0,0.4-0.3,0.8-0.7,0.8c0,0,0,0,0,0L96.9,235.4
		L96.9,235.4z"></path><path class="st1" d="M101,177.6h101.9c1.8,0,3.3,1.5,3.3,3.3v44.8c0,1.8-1.5,3.3-3.3,3.3H101c-1.8,0-3.3-1.5-3.3-3.3v-44.8
		C97.7,179.1,99.2,177.6,101,177.6z"></path><path class="st2" d="M202.9,229.9H101c-2.3,0-4.1-1.8-4.1-4.1V181c0-2.3,1.8-4.1,4.1-4.1h101.9c2.3,0,4.1,1.8,4.1,4.1v44.8
		C207,228.1,205.1,229.9,202.9,229.9z M101,178.4c-1.4,0-2.6,1.2-2.6,2.6v44.8c0,1.4,1.2,2.6,2.6,2.6h101.9c1.4,0,2.6-1.2,2.6-2.6
		V181c0-1.4-1.2-2.6-2.6-2.6L101,178.4z"></path><circle class="st2" cx="122.7" cy="203.4" r="13.8"></circle><path class="st2" d="M194.4,196.8h-43.8c-0.4,0-0.8-0.3-0.8-0.8s0.3-0.8,0.8-0.8h43.8c0.4,0,0.8,0.3,0.8,0.8
		S194.8,196.8,194.4,196.8z"></path><path class="st2" d="M194.4,204.1h-43.8c-0.4,0-0.8-0.3-0.8-0.8s0.3-0.8,0.8-0.8h43.8c0.4,0,0.8,0.3,0.8,0.8
		S194.8,204.1,194.4,204.1z"></path><path class="st2" d="M179.1,211.4h-28.6c-0.4,0-0.8-0.3-0.8-0.8s0.3-0.8,0.8-0.8h28.6c0.4,0,0.8,0.3,0.8,0.8
		S179.6,211.4,179.1,211.4z"></path><path class="st1" d="M99.6,236.8c0,0,17.6,11.8,24.4,8.2c6.8-3.5,21-16.1,21-16.1s3.3-8.2,6.3-7.6s0.2,8.4,0.2,8.4
		s17.4-2.9,17.2-1.2s-9.4,6.1-13.5,6.9s-19,24.3-29,27s-20-3.3-30.8-10"></path><path class="st2" d="M121.1,263.8c-8.6,0-17.1-5.3-26-10.8c-0.3-0.2-0.4-0.7-0.2-1c0.2-0.3,0.7-0.4,1-0.2
		c10.5,6.5,20.4,12.6,30.2,9.9c5.8-1.6,13.4-10.5,19.5-17.7c4.9-5.8,7.8-9,9.6-9.4c4-0.8,11.3-4.3,12.7-5.9c-2-0.3-9.6,0.6-16.1,1.7
		c-0.3,0-0.5-0.1-0.7-0.3c-0.2-0.2-0.2-0.5-0.1-0.7c0.7-2,1.6-5.8,0.8-7.1c-0.1-0.2-0.3-0.3-0.5-0.4c-1.6-0.3-4.2,4.1-5.4,7.2
		c0,0.1-0.1,0.2-0.2,0.3c-0.6,0.5-14.2,12.6-21.1,16.2c-7.2,3.7-24.5-7.8-25.2-8.3c-0.3-0.2-0.4-0.7-0.2-1c0.2-0.3,0.7-0.4,1-0.2
		c4.8,3.2,18.4,10.9,23.7,8.2c6.4-3.3,19.2-14.6,20.7-15.8c0.7-1.8,3.8-8.6,7-7.9c0.6,0.1,1.2,0.5,1.5,1.1c1,1.7,0.2,5.2-0.4,7.1
		c6.1-1,15.3-2.2,16.6-1c0.2,0.2,0.4,0.5,0.3,0.9c-0.3,2.5-10.5,6.8-14.1,7.5c-1.4,0.3-5.1,4.6-8.7,8.9c-6.2,7.3-14,16.4-20.2,18.2
		C124.6,263.7,122.8,263.9,121.1,263.8z"></path><path class="st2" d="M92.8,278c1.5,10.3,1.8,14.3,16.4,98.2c0,0-34.2,8-47.3,10.4C53.1,368.1,49,351.6,43,332.2
		c-4-12.6-7-29.5-1.3-41.4l9.6-20.4C51.3,270.5,92.9,278.3,92.8,278z"></path><path class="st1" d="M63,231.4c0.5-11.2-1.7-33.9-1.7-33.9s14.3,0.8,19.1-6c5.9,4.6,7.1,17.6,6,21.4c-2.1,7.7-12.1,6-12.1,6l1.3,14
		L63,231.4z"></path><path class="st2" d="M75.6,233.6L75.6,233.6l-12.6-1.5c-0.4,0-0.7-0.4-0.7-0.8c0.5-11-1.7-33.6-1.7-33.8c0-0.2,0.1-0.4,0.2-0.6
		c0.2-0.2,0.4-0.2,0.6-0.2c0.1,0,13.9,0.7,18.4-5.7c0.2-0.3,0.7-0.4,1.1-0.2c0,0,0,0,0,0c6.2,4.8,7.4,18.1,6.3,22.2
		c-1.9,6.7-9.3,6.8-12,6.6l1.2,13.1c0,0.2-0.1,0.4-0.2,0.6C75.9,233.5,75.8,233.6,75.6,233.6z M63.8,230.7l10.9,1.3l-1.2-13.1
		c0-0.2,0.1-0.5,0.2-0.6c0.2-0.2,0.4-0.2,0.6-0.2c0.4,0.1,9.3,1.5,11.2-5.4c0.9-3.3,0-15.3-5.2-20.2c-4.6,5.6-15.2,5.8-18.3,5.7
		C62.5,202.4,64.2,220.6,63.8,230.7L63.8,230.7z"></path><path class="st2" d="M74.3,218.8c0,0-4.1-0.5-6.2-2.6c0,0,2.7,6.8,6.9,7.8L74.3,218.8z"></path><path class="st2" d="M75.1,224.8c-0.1,0-0.1,0-0.2,0c-4.5-1.1-7.3-8-7.4-8.2c-0.2-0.4,0-0.8,0.4-1c0.3-0.1,0.6,0,0.8,0.2
		c1.8,1.8,5.7,2.3,5.7,2.3c0.3,0,0.6,0.3,0.7,0.6l0.8,5.3c0,0.2-0.1,0.5-0.2,0.7C75.4,224.8,75.2,224.8,75.1,224.8z M70.1,218.4
		c0.9,1.8,2.3,3.4,4.1,4.5l-0.5-3.4C72.4,219.3,71.2,218.9,70.1,218.4L70.1,218.4z"></path><path class="st3" d="M85.1,225.6l32.6,17.9l-7.9,22.8c0,0-40.9-21.7-41.2-27.5S85.1,225.6,85.1,225.6z"></path><path class="st3" d="M93.3,282c0,0,3.4-17,0.5-34.8c-1.2-7.5-0.8-12.8-3.3-16.9c-8.4-13.7-41-9.6-45.8-0.1s4.1,44.2,4.1,44.2
		L93.3,282z"></path><path class="st1" d="M63.6,205.4c-0.4-1.8-1.7-3.2-3.5-3.7c-0.8-0.3-1.6-0.2-2.3,0.3c-0.8,0.7-1.2,1.8-1.1,2.9
		c0.3,3.5,3.2,6.2,6.7,6.2"></path><path class="st2" d="M63.4,211.8c-3.9,0-7.1-3-7.4-6.9c-0.2-1.4,0.3-2.7,1.4-3.6c0.9-0.6,2-0.7,3-0.4c2,0.6,3.6,2.2,4,4.3
		c0.1,0.4-0.2,0.8-0.6,0.9c-0.4,0.1-0.7-0.2-0.8-0.6c-0.3-1.5-1.4-2.7-2.9-3.1c-0.6-0.2-1.2-0.1-1.7,0.2c-0.6,0.6-0.9,1.4-0.7,2.2
		c0.2,3.1,2.9,5.5,6,5.5c0.4,0,0.7,0.3,0.8,0.7c0,0.4-0.3,0.7-0.7,0.8c0,0,0,0,0,0H63.4z"></path><ellipse class="st2" transform="matrix(0.9546 -0.2979 0.2979 0.9546 -55.519 33.091)" cx="80.8" cy="198.7" rx="0.7" ry="1.3"></ellipse><path class="st1" d="M83.8,213.4c-0.9,0.6-1.8,1-2.8,1.3c-1.4,0.4-3,0.4-4-0.7c-0.4-0.5-0.7-1-0.8-1.6"></path><path class="st2" d="M79.4,215.6c-1.1,0.1-2.2-0.4-3-1.2c-0.4-0.5-0.8-1.2-1-1.9c-0.2-0.4,0-0.8,0.4-1c0,0,0,0,0,0
		c0.4-0.2,0.8,0,1,0.4c0,0,0,0,0,0c0.1,0.5,0.4,1,0.7,1.4c0.9,1,2.7,0.6,3.2,0.5c0.9-0.3,1.8-0.7,2.7-1.2c0.4-0.2,0.8-0.1,1,0.2
		c0.2,0.4,0.1,0.8-0.2,1c-1,0.6-2,1.1-3.1,1.4C80.6,215.5,80,215.6,79.4,215.6z"></path><path class="st1" d="M83.9,200c0,0,5.7,6.5,4.3,7.9s-4.7,0.7-4.7,0.7"></path><path class="st2" d="M85.3,209.6c-0.7,0-1.3-0.1-2-0.2c-0.4-0.1-0.7-0.5-0.6-0.9s0.5-0.7,0.9-0.6c0.8,0.2,3.1,0.4,4-0.5
		c0.3-0.7-1.8-4-4.4-6.9c-0.3-0.3-0.2-0.8,0.1-1.1c0.3-0.3,0.8-0.2,1.1,0.1c2.3,2.6,5.9,7.3,4.3,9C87.8,209.3,86.6,209.7,85.3,209.6
		z"></path><path class="st2" d="M109.7,267c-0.1,0-0.2,0-0.3-0.1c-0.2-0.1-22.8-12.1-30.9-16.6c-0.4-0.2-0.5-0.7-0.3-1c0.2-0.3,0.6-0.5,1-0.3
		c8.2,4.4,30.7,16.5,31,16.6c0.4,0.2,0.5,0.7,0.3,1C110.3,266.9,110,267,109.7,267z"></path><path class="st1" d="M66.2,349.7c-0.3,0-0.5-0.1-0.7-0.4c-2.9-5.3-12-17.3-12-17.5c-0.2-0.3-0.2-0.8,0.2-1c0.3-0.2,0.8-0.2,1,0.1
		c0.4,0.5,9.3,12.2,12.2,17.6c0.2,0.4,0.1,0.8-0.3,1C66.5,349.7,66.4,349.7,66.2,349.7z"></path></g><g id="character_male"><path class="st1" d="M390.3,277.2l2.7-0.1c2.5-0.1,5,1.5,5.7,3.4l53.5,147.9c0.7,2-0.7,3.6-3.2,3.7l-2.7,0.1
		c-2.5,0.1-5-1.5-5.7-3.4l-53.5-147.9C386.4,278.9,387.8,277.3,390.3,277.2z"></path><path class="st0" d="M446.2,432.9c-2.7,0-5.5-1.7-6.3-3.9l-53.5-147.9c-0.4-1-0.3-2.1,0.3-3c0.8-1.1,2.2-1.7,3.5-1.7l0,0l2.7-0.1
		c2.8-0.1,5.6,1.6,6.5,3.9L453,428.2c0.4,1,0.3,2.1-0.3,3c-0.8,1.1-2.2,1.7-3.5,1.7l-2.7,0.1L446.2,432.9z M390.3,278L390.3,278
		c-0.9-0.1-1.8,0.3-2.4,1c-0.3,0.5-0.4,1.1-0.1,1.6l53.5,147.9c0.6,1.6,2.9,3,5,2.9l2.7-0.1c0.9,0.1,1.8-0.3,2.4-1
		c0.3-0.5,0.4-1.1,0.1-1.6l-53.6-148c-0.6-1.6-2.9-3-5-2.9L390.3,278z"></path><path class="st1" d="M393.2,288.8l-49.7,0.8c-1.8,0.1-3.5-0.9-4.4-2.6l0,0c-0.5-1.5,0.5-2.7,2.4-2.8l49.7-0.8
		c1.8-0.1,3.5,0.9,4.3,2.6l0,0C396.2,287.5,395.1,288.8,393.2,288.8z"></path><path class="st0" d="M343.4,290.4c-2.1,0-4-1.2-4.9-3.1c-0.3-0.8-0.2-1.7,0.2-2.4c0.7-0.9,1.7-1.4,2.8-1.4l49.7-0.8
		c2.2-0.1,4.2,1.1,5.1,3.1c0.3,0.8,0.2,1.7-0.3,2.4c-0.7,0.9-1.7,1.4-2.8,1.4l0,0l-49.7,0.8H343.4z M391.4,284.2h-0.1l-49.7,0.8
		c-0.6,0-1.2,0.2-1.6,0.7c-0.2,0.3-0.2,0.7-0.1,1.1c0.7,1.3,2,2.1,3.5,2.1h0.1l49.7-0.8c0.6,0,1.2-0.2,1.6-0.7
		c0.2-0.3,0.2-0.7,0.1-1.1C394.2,285,392.9,284.2,391.4,284.2L391.4,284.2z M393.2,288.8L393.2,288.8z"></path><path class="st1" d="M400.7,309.5l-49.7,0.8c-1.8,0.1-3.5-0.9-4.4-2.6l0,0c-0.5-1.5,0.5-2.7,2.4-2.8l49.7-0.8
		c1.8-0.1,3.5,0.9,4.3,2.6l0,0C403.6,308.1,402.5,309.4,400.7,309.5z"></path><path class="st0" d="M350.9,311c-2.1,0-4-1.2-4.9-3.1c-0.3-0.8-0.2-1.7,0.3-2.4c0.7-0.9,1.7-1.4,2.8-1.4l49.7-0.8
		c2.2-0.1,4.2,1.1,5.1,3.1c0.3,0.8,0.2,1.7-0.3,2.4c-0.7,0.9-1.7,1.4-2.8,1.4l0,0L351,311H350.9z M398.9,304.8L398.9,304.8
		l-49.8,0.8c-0.6,0-1.2,0.2-1.6,0.7c-0.2,0.3-0.2,0.7-0.1,1.1c0.7,1.3,2.1,2.1,3.5,2.1h0.1l49.7-0.8c0.6,0,1.2-0.2,1.6-0.7
		c0.2-0.3,0.2-0.7,0.1-1.1C401.7,305.6,400.3,304.8,398.9,304.8L398.9,304.8z M400.7,309.4L400.7,309.4z"></path><path class="st1" d="M408.2,330.1l-49.7,0.8c-1.8,0.1-3.5-0.9-4.3-2.6l0,0c-0.5-1.5,0.5-2.7,2.4-2.8l49.7-0.8
		c1.8-0.1,3.5,0.9,4.4,2.6l0,0C411.1,328.8,410,330,408.2,330.1z"></path><path class="st0" d="M358.3,331.7c-2.1,0-4-1.2-4.9-3.1c-0.3-0.8-0.2-1.7,0.3-2.4c0.7-0.9,1.7-1.4,2.8-1.4l49.7-0.8
		c2.2-0.1,4.1,1.1,5.1,3.1c0.3,0.8,0.2,1.7-0.2,2.4c-0.7,0.9-1.7,1.4-2.8,1.4l0,0l-49.7,0.8L358.3,331.7z M406.3,325.5h-0.1
		l-49.7,0.8c-0.6,0-1.2,0.2-1.6,0.7c-0.2,0.3-0.2,0.7-0.1,1.1c0.7,1.3,2.1,2.1,3.5,2.1h0.1l49.7-0.8c0.6,0,1.2-0.2,1.6-0.7
		c0.2-0.3,0.2-0.7,0.1-1.1C409.2,326.2,407.8,325.4,406.3,325.5L406.3,325.5z M408.1,330.1L408.1,330.1z"></path><path class="st1" d="M415.6,350.7l-49.7,0.8c-1.8,0.1-3.5-0.9-4.3-2.6l0,0c-0.5-1.5,0.5-2.7,2.4-2.8l49.7-0.8c1.8,0,3.5,1,4.3,2.6
		l0,0C418.6,349.4,417.5,350.7,415.6,350.7z"></path><path class="st0" d="M365.8,352.3c-2.1,0-4-1.2-4.9-3.1c-0.3-0.8-0.2-1.7,0.3-2.4c0.7-0.9,1.7-1.4,2.8-1.4l49.7-0.8
		c2.2-0.1,4.1,1.1,5.1,3.1c0.3,0.8,0.2,1.7-0.2,2.4c-0.7,0.9-1.7,1.4-2.8,1.4l0,0l-49.7,0.8H365.8z M413.8,346.1h-0.1l-49.7,0.8
		c-0.6,0-1.2,0.2-1.6,0.7c-0.2,0.3-0.2,0.7-0.1,1.1c0.7,1.3,2,2.1,3.5,2.1h0.1l49.7-0.8c0.6,0,1.2-0.2,1.6-0.7
		c0.2-0.3,0.2-0.7,0.1-1.1C416.6,346.9,415.3,346.1,413.8,346.1L413.8,346.1z M415.6,350.7L415.6,350.7z"></path><path class="st1" d="M423.1,371.4l-49.7,0.8c-1.8,0.1-3.5-0.9-4.4-2.6l0,0c-0.5-1.5,0.5-2.7,2.4-2.8l49.7-0.8
		c1.8-0.1,3.5,0.9,4.3,2.6l0,0C426,370.1,425,371.3,423.1,371.4z"></path><path class="st0" d="M373.2,373c-2.1,0-4-1.2-4.9-3.1c-0.3-0.8-0.2-1.7,0.2-2.4c0.7-0.9,1.7-1.4,2.8-1.4l49.7-0.8
		c2.2-0.1,4.1,1.1,5.1,3.1c0.3,0.8,0.2,1.7-0.3,2.4c-0.7,0.9-1.7,1.4-2.8,1.4l0,0l-49.7,0.8H373.2z M421.2,366.8h-0.1l-49.7,0.8
		c-0.6,0-1.2,0.2-1.6,0.7c-0.2,0.3-0.2,0.7-0.1,1.1c0.7,1.3,2.1,2.2,3.6,2.1l49.7-0.8c0.6,0,1.2-0.2,1.6-0.7
		c0.2-0.3,0.2-0.7,0.1-1.1C424.1,367.6,422.8,366.7,421.2,366.8L421.2,366.8z M423.1,371.4L423.1,371.4z"></path><path class="st1" d="M430.6,392l-49.7,0.8c-1.8,0.1-3.5-0.9-4.4-2.6l0,0c-0.5-1.5,0.5-2.7,2.4-2.8l49.7-0.8
		c1.8-0.1,3.5,0.9,4.3,2.6l0,0C433.5,390.7,432.4,392,430.6,392z"></path><path class="st0" d="M380.7,393.6c-2.1,0-4-1.2-4.9-3.1c-0.3-0.8-0.2-1.7,0.2-2.4c0.7-0.9,1.7-1.4,2.8-1.4l49.7-0.8
		c2.2-0.1,4.1,1.1,5.1,3.1c0.3,0.8,0.2,1.7-0.3,2.4c-0.7,0.9-1.7,1.4-2.8,1.4l0,0l-49.7,0.8H380.7z M428.7,387.4h-0.1l-49.7,0.8
		c-0.6,0-1.2,0.2-1.6,0.7c-0.2,0.3-0.2,0.7-0.1,1.1c0.7,1.3,2,2.1,3.5,2.1h0.1l49.7-0.8c0.6,0,1.2-0.2,1.6-0.7
		c0.2-0.3,0.2-0.7,0.1-1.1C431.6,388.2,430.2,387.4,428.7,387.4L428.7,387.4z M430.5,392L430.5,392z"></path><path class="st1" d="M438,412.6l-49.7,0.8c-1.8,0.1-3.5-0.9-4.4-2.6l0,0c-0.5-1.5,0.5-2.7,2.4-2.8l49.7-0.8
		c1.8-0.1,3.5,0.9,4.3,2.6l0,0C441,411.3,439.9,412.6,438,412.6z"></path><path class="st0" d="M388.2,414.2c-2.1,0-4-1.2-4.9-3.1c-0.3-0.8-0.2-1.7,0.2-2.4c0.7-0.9,1.7-1.4,2.8-1.3l49.7-0.8
		c2.2-0.1,4.1,1.1,5.1,3.1c0.3,0.8,0.2,1.7-0.3,2.4c-0.7,0.9-1.7,1.4-2.8,1.4l0,0l-49.7,0.8L388.2,414.2z M436.2,408L436.2,408
		l-49.8,0.8c-0.6,0-1.2,0.2-1.6,0.7c-0.2,0.3-0.2,0.7-0.1,1.1c0.7,1.3,2,2.1,3.5,2.1h0.1l49.7-0.8c0.6,0,1.2-0.2,1.6-0.7
		c0.2-0.3,0.2-0.7,0.1-1.1C439,408.8,437.7,408,436.2,408L436.2,408z M438,412.6L438,412.6z"></path><path class="st1" d="M336.7,278.1l2.7-0.1c2.5-0.1,5,1.5,5.7,3.4l53.5,147.9c0.7,2-0.7,3.6-3.2,3.7l-2.7,0.1
		c-2.5,0.1-5-1.5-5.7-3.4l-53.5-147.9C332.8,279.9,334.2,278.2,336.7,278.1z"></path><path class="st0" d="M392.6,433.9c-2.7,0-5.5-1.7-6.3-3.9l-53.5-147.9c-0.4-1-0.3-2.1,0.3-3c0.8-1.1,2.2-1.7,3.5-1.7l2.7-0.1
		c2.8-0.1,5.6,1.6,6.5,3.9l53.5,147.9c0.4,1,0.3,2.1-0.3,3c-0.8,1.1-2.2,1.7-3.5,1.7l-2.7,0.1L392.6,433.9z M339.6,278.8h-0.1
		l-2.7,0.1l0,0c-0.9-0.1-1.8,0.3-2.4,1c-0.3,0.5-0.4,1.1-0.1,1.6l53.5,147.9c0.6,1.6,2.9,3,5,2.9l2.7-0.1c0.9,0.1,1.8-0.3,2.4-1
		c0.3-0.5,0.4-1.1,0.1-1.6l-53.6-147.9C343.9,280.1,341.7,278.8,339.6,278.8L339.6,278.8z M336.7,278.1L336.7,278.1z"></path><path class="st1" d="M374.1,191.2c-10.7,6.2-23,11-35.5,8.6c-10.6-2-20.2-9.1-24-19.4c-0.8-2-1.2-4.1-2-6.1
		c-0.3-0.8-0.8-1.7-1.7-1.8c-1.4-0.1-1.9,1.8-1.7,3.2c0.1,1.1,0.3,2.1,0.3,3.2c0,0.8,0.1,2.7,0.6,3.3l-9.6-9.2
		c-0.4-0.5-1-0.9-1.6-1.1c-0.7-0.2-1.4,0.2-1.6,0.8c0,0.5,0.2,1,0.6,1.4l3.8,4.9c-1.7-1.5-3.4-2.8-5.2-4.1c-2.4-1.7-3.2,0.8-1.8,2.6
		l3.9,4.9c-1.3-1.3-2.6-2.5-4.1-3.6c-0.4-0.3-1-0.6-1.5-0.3c-0.3,0.2-0.4,0.6-0.3,1c0.1,0.3,0.3,0.6,0.6,0.9l3.6,4.1
		c-0.6-0.6-3.7-3.5-4.5-1.9c-0.5,0.9,1.3,2.4,1.8,2.9c3.5,3.4,7,6.7,10.6,9.9c9.7,8.7,20.8,16.7,33.8,19.6c14.3,3.3,30-0.4,42.1-8.7
		"></path><path class="st2" d="M349.3,217c-3.7,0-7.3-0.4-10.9-1.2c-14.5-3.3-26.4-12.9-34.2-19.8c-4-3.6-7.5-6.8-10.6-9.9l-0.2-0.2
		c-0.9-0.8-2.4-2.2-1.7-3.5c0.2-0.5,0.7-0.8,1.2-0.8c0.1,0,0.2,0,0.3,0l-0.4-0.4c-0.3-0.3-0.6-0.7-0.7-1.2c-0.2-0.7,0-1.4,0.5-1.8
		c0.4-0.3,0.9-0.3,1.4-0.2c-0.9-1.3-1-2.8-0.2-3.6c0.3-0.3,1.3-1.1,3.1,0.2l0.5,0.4l-0.1-0.1c-0.5-0.5-0.8-1.3-0.7-2
		c0.1-0.5,0.4-0.9,0.8-1.1c0.5-0.3,1.1-0.4,1.7-0.3c0.8,0.2,1.5,0.7,2,1.3l7.6,7.4c0-0.3,0-0.6,0-0.9c0-0.9-0.1-1.7-0.2-2.6
		l-0.1-0.6c-0.2-1.2,0.1-2.4,0.9-3.4c0.4-0.4,1-0.7,1.6-0.6c1,0.1,1.8,0.8,2.3,2.2c0.4,1.1,0.8,2.2,1.1,3.4c0.3,0.9,0.6,1.9,0.9,2.8
		c3.6,9.6,12.6,16.8,23.5,18.9c10.2,2,21.7-0.8,35-8.5c0.4-0.2,0.8-0.1,1,0.3c0.2,0.4,0.1,0.8-0.3,1c-13.6,7.9-25.4,10.8-36,8.7
		c-11.4-2.2-20.9-9.8-24.6-19.9c-0.4-1-0.7-2-1-2.9s-0.7-2.2-1.1-3.2c-0.2-0.6-0.6-1.3-1.1-1.3c-0.2,0-0.3,0-0.4,0.2
		c-0.4,0.6-0.6,1.4-0.5,2.2l0.1,0.6c0.1,0.9,0.2,1.8,0.2,2.7c0.1,2.2,0.3,2.7,0.4,2.8l0,0c0.3,0.3,0.3,0.8,0,1.1
		c-0.3,0.3-0.7,0.3-1,0l0,0l0,0l0,0l-9.6-9.2c-0.3-0.4-0.8-0.7-1.3-0.9c-0.2,0-0.4,0-0.5,0.1c-0.1,0-0.1,0.1-0.1,0.1
		c0,0.2,0.3,0.6,0.4,0.8l3.8,4.9c0.2,0.3,0.2,0.7-0.1,1c-0.3,0.3-0.7,0.3-1,0c-1.7-1.4-3.4-2.8-5.2-4c-0.7-0.5-1.1-0.5-1.2-0.4
		s-0.2,1.1,0.4,1.9l3.9,4.9c0.3,0.3,0.2,0.8-0.1,1.1s-0.8,0.2-1.1-0.1l0,0c-1.2-1.3-2.6-2.4-4-3.5c-0.2-0.1-0.4-0.3-0.6-0.3
		c0,0,0,0.1,0,0.1c0.1,0.2,0.3,0.4,0.4,0.6l3.6,4.1c0.2,0.3,0.2,0.7,0,1c-0.3,0.3-0.7,0.3-1,0c-1.7-1.7-3.1-2.3-3.3-2.2
		c-0.1,0.2,0.1,0.6,1.4,1.8l0.3,0.3c3.2,3.1,6.6,6.3,10.6,9.9c7.6,6.8,19.4,16.3,33.5,19.5c13.6,3.1,29.1-0.1,41.5-8.6
		c0.3-0.2,0.8-0.1,1,0.2c0.2,0.3,0.1,0.8-0.2,1.1C371.8,213.4,360.7,216.9,349.3,217z"></path><path class="st1" d="M423.6,354.1l1.3,9.8c0,0-27.2,2.8-26.2,0.5s6.6-9.8,6.6-9.8"></path><path class="st2" d="M404.5,366c-3.4,0-5.8-0.2-6.3-0.9c-0.2-0.3-0.2-0.7-0.1-1c1.1-2.4,6.4-9.6,6.6-10c0.2-0.3,0.7-0.4,1-0.1
		c0.3,0.2,0.4,0.7,0.2,1c0,0.1-4.9,6.7-6.3,9.3c2.3,0.7,13.7,0,24.4-1l-1.2-9c-0.1-0.4,0.2-0.8,0.6-0.9c0.4-0.1,0.8,0.2,0.9,0.6
		c0,0,0,0.1,0,0.1l1.3,9.8c0.1,0.4-0.2,0.8-0.6,0.8c0,0,0,0,0,0C419,365.2,410.4,366,404.5,366z"></path><path class="st1" d="M385.5,316.6c0,0,5.7,7.1,4.6,8.4s-31.2,2.8-29.9-0.4s9.4-9.8,9.4-9.8"></path><path class="st2" d="M372.1,327.3c-5.5,0-10.4-0.4-11.9-1.2c-0.7-0.3-1-1-0.7-1.7c1.4-3.3,9.2-9.8,9.6-10.1
		c0.3-0.3,0.8-0.2,1.1,0.1c0.2,0.3,0.2,0.8-0.1,1c-2.1,1.8-7.9,6.8-9.1,9.3c2.4,1.7,25.9,0.9,28.5-0.3c0-0.8-2-4.2-4.6-7.5
		c-0.3-0.3-0.2-0.8,0.1-1.1s0.8-0.2,1.1,0.1c2.8,3.5,5.8,7.9,4.6,9.4C389.9,326.5,380.4,327.3,372.1,327.3z"></path><path class="st2" d="M374.9,240.2c0,0-34,21.1-33.6,32.5c0.3,7.8,24.1,46.6,24.1,46.6l22.8-1.3c0,0-20.8-31.7-16.2-36.4
		s30.1-17.4,30.1-17.4l0.5,91.2c0,0,23.2-1.7,23.2-3s5-108.5,5-108.5L374.9,240.2z"></path><path class="st1" d="M424.2,142.2c-0.1-1.4-0.7-2.7-1.7-3.8c-1-1-2.7-1.1-3.8-0.2c0.2-2.5-2.1-4.5-4.3-5.7c-2.8-1.5-5.8-2.6-9-3.1
		c-2.1-0.3-4.1-0.5-6.2-0.5c-3.1-0.1-6.5,0.2-8.9,2.1c-3,2.3-3.9,6.6-3,10.2s3.3,6.7,5.9,9.4c3.2,3.3,7.1,5.8,11.5,7.3
		c2.6,0.7,5.3,1.1,8,1.1c4.3,0.1,6.2-1.9,8.4-5.2C423.4,150.2,424.8,146.5,424.2,142.2z"></path><path class="st2" d="M413.1,159.7h-0.4c-2.8,0-5.5-0.4-8.2-1.2c-4.5-1.5-8.5-4.1-11.8-7.5c-3.4-3.3-5.4-6.5-6.1-9.7
		c-1-4.2,0.3-8.7,3.3-11c2.7-2.1,6.3-2.3,9.4-2.3c2.1,0,4.2,0.2,6.3,0.5c3.2,0.6,6.3,1.6,9.2,3.2c1.6,0.9,4.1,2.6,4.6,5.1
		c1.3-0.3,2.7,0,3.7,0.9c1.1,1.1,1.8,2.6,1.9,4.2l0,0c0.6,4-0.5,7.9-3.3,12C419.6,157.3,417.6,159.7,413.1,159.7z M398.5,129.5
		c-2.7,0-5.6,0.3-7.8,2c-2.9,2.3-3.5,6.4-2.7,9.4s2.6,5.9,5.7,9c3.1,3.3,6.9,5.7,11.2,7.1c2.5,0.7,5.2,1.1,7.8,1.1
		c3.8,0.1,5.4-1.4,7.7-4.9c2.6-3.9,3.6-7.4,3-11l0,0c-0.1-1.2-0.6-2.4-1.5-3.3c-0.8-0.7-1.9-0.8-2.8-0.2c-0.3,0.3-0.8,0.3-1.1,0
		c-0.1-0.2-0.2-0.4-0.2-0.6c0.2-2.4-2.4-4.2-3.9-5c-2.7-1.5-5.7-2.5-8.7-3.1c-2-0.3-4.1-0.5-6.1-0.5L398.5,129.5z"></path><path class="st1" d="M413.8,182.4c-0.5-11.2,1.7-33.9,1.7-33.9s-14.3,0.8-19.1-6c-5.9,4.6-7.1,17.6-6,21.4c2.1,7.6,12.1,6,12.1,6
		l-1.3,14L413.8,182.4z"></path><path class="st2" d="M401.2,184.7c-0.2,0-0.4-0.1-0.5-0.2c-0.2-0.2-0.2-0.4-0.2-0.6l1.2-13.1c-2.7,0.2-10.1,0.1-12-6.6
		c-1.1-4.1,0.1-17.4,6.3-22.2c0.2-0.1,0.4-0.2,0.6-0.1c0.2,0,0.4,0.1,0.5,0.3c4.5,6.4,18.3,5.7,18.4,5.7c0.2,0,0.4,0.1,0.6,0.2
		c0.2,0.2,0.2,0.4,0.2,0.6c0,0.2-2.2,22.8-1.7,33.8c0,0.4-0.3,0.7-0.7,0.8L401.2,184.7L401.2,184.7z M402.5,169.2
		c0.2,0,0.4,0.1,0.5,0.2c0.2,0.2,0.3,0.4,0.2,0.6l-1.2,13.1l10.9-1.3c-0.4-10.1,1.3-28.3,1.7-32.5c-3.1,0.1-13.7-0.2-18.4-5.7
		c-5.2,4.9-6.1,16.9-5.2,20.2c1.9,6.9,10.9,5.5,11.2,5.4L402.5,169.2z"></path><path class="st2" d="M402.5,169.9c0,0,4.1-0.5,6.1-2.6c0,0-2.7,6.8-6.9,7.8L402.5,169.9z"></path><path class="st2" d="M401.8,175.9c-0.4,0-0.7-0.3-0.8-0.7c0,0,0-0.1,0-0.1l0.8-5.3c0-0.3,0.3-0.6,0.6-0.6c0,0,3.9-0.5,5.7-2.3
		c0.3-0.3,0.8-0.3,1.1,0c0.2,0.2,0.3,0.5,0.2,0.8c-0.1,0.3-2.9,7.1-7.4,8.2L401.8,175.9z M403.2,170.6l-0.5,3.4
		c1.7-1.1,3.1-2.7,4.1-4.5C405.6,170,404.4,170.4,403.2,170.6L403.2,170.6z"></path><path class="st3" d="M393.6,175.2l-32.6,17.9l7.9,22.8c0,0,41-21.7,41.2-27.5S393.6,175.2,393.6,175.2z"></path><path class="st3" d="M374.1,240.8c0,0,1.6-23.3,4.5-41.1c1.2-7.5,0.8-12.8,3.3-16.9c8.4-13.7,41-9.6,45.8-0.1s3.2,61.2,3.2,61.2
		L374.1,240.8z"></path><path class="st1" d="M413.2,156.5c0.4-1.8,1.7-3.2,3.5-3.7c0.8-0.3,1.6-0.2,2.3,0.2c0.8,0.7,1.2,1.8,1.1,2.9
		c-0.3,3.5-3.2,6.2-6.8,6.2"></path><path class="st2" d="M413.4,162.9h-0.1c-0.4,0-0.8-0.3-0.8-0.8s0.3-0.8,0.8-0.8c3.1,0.1,5.8-2.4,6-5.5c0.1-0.8-0.2-1.6-0.8-2.2
		c-0.5-0.3-1.2-0.4-1.7-0.2c-1.5,0.4-2.6,1.6-2.9,3.1c0,0.4-0.4,0.7-0.8,0.7c-0.4,0-0.7-0.4-0.7-0.8c0,0,0-0.1,0-0.1
		c0.4-2.1,2-3.7,4-4.3c1-0.3,2.1-0.2,3,0.4c1.1,0.8,1.6,2.2,1.4,3.6C420.6,159.9,417.3,162.9,413.4,162.9L413.4,162.9z"></path><ellipse class="st2" transform="matrix(0.2979 -0.9546 0.9546 0.2979 135.0536 483.195)" cx="396" cy="149.8" rx="1.3" ry="0.7"></ellipse><path class="st1" d="M393,164.5c0.9,0.6,1.9,1,2.9,1.3c1.4,0.4,3,0.4,4-0.7c0.4-0.5,0.7-1,0.9-1.6"></path><path class="st2" d="M397.4,166.7c-0.6,0-1.2-0.1-1.8-0.2c-1.1-0.3-2.1-0.7-3.1-1.4c-0.3-0.2-0.4-0.7-0.2-1c0.2-0.3,0.7-0.4,1-0.2
		c0.8,0.5,1.7,0.9,2.7,1.1c0.5,0.1,2.3,0.5,3.2-0.5c0.3-0.4,0.6-0.9,0.7-1.4c0.1-0.4,0.6-0.6,1-0.4c0.4,0.1,0.6,0.6,0.4,1
		c-0.2,0.7-0.5,1.3-1,1.9C399.6,166.3,398.5,166.8,397.4,166.7z"></path><path class="st1" d="M392.9,151.1c0,0-5.7,6.5-4.3,7.9s4.7,0.7,4.7,0.7"></path><path class="st2" d="M391.5,160.7c-1.2,0.1-2.5-0.3-3.4-1.1c-1.7-1.7,2-6.3,4.3-9c0.3-0.3,0.8-0.3,1.1-0.1s0.3,0.8,0.1,1.1
		c-2.6,3-4.7,6.3-4.3,6.9c0.9,0.9,3.2,0.7,4,0.5c0.4-0.1,0.8,0.1,0.9,0.5s-0.1,0.8-0.5,0.9c0,0-0.1,0-0.1,0
		C392.8,160.6,392.1,160.7,391.5,160.7z"></path><path class="st2" d="M369,216.6c-0.3,0-0.5-0.2-0.7-0.4c-0.2-0.4-0.1-0.8,0.3-1c0,0,0,0,0,0c0.2-0.1,22.7-12.1,30.9-16.6
		c0.4-0.2,0.8-0.1,1,0.3c0.2,0.4,0.1,0.8-0.3,1c-8.2,4.4-30.7,16.5-31,16.6C369.2,216.6,369.1,216.6,369,216.6z"></path><path class="st1" d="M402.1,265c-0.4,0-0.8-0.3-0.8-0.7c0-0.3,0.2-0.6,0.4-0.7c0.1,0,7.8-4.1,9.8-7.9c0.2-0.3,0.6-0.5,1-0.3
		c0.4,0.2,0.5,0.6,0.3,1c-2.2,4.1-10,8.3-10.4,8.5C402.4,265,402.3,265,402.1,265z"></path></g></svg>